{
  "asset": {
    "version": "2.0",
    "generator": "THREE.GLTFExporter r166"
  },
  "scenes": [
    {
      "name": "Scene",
      "nodes": [
        0,
        12
      ]
    }
  ],
  "scene": 0,
  "nodes": [
    {
      "name": "AmbientLight"
    },
    {
      "matrix": [
        1,
        0,
        0,
        0,
        0,
        1,
        0,
        0,
        0,
        0,
        1,
        0,
        -0.0020455424673855305,
        -1.867757760711691,
        0.2394217550754547,
        1
      ],
      "name": "Mesh_6",
      "extras": {
        "name": "Mesh_6"
      },
      "mesh": 0
    },
    {
      "matrix": [
        1,
        0,
        0,
        0,
        0,
        1,
        0,
        0,
        0,
        0,
        1,
        0,
        0.004397468641400337,
        -1.5152066712480172,
        -0.34493258595466614,
        1
      ],
      "name": "Mesh_6_1",
      "extras": {
        "name": "Mesh_6_1"
      },
      "mesh": 1
    },
    {
      "name": "hats",
      "extras": {
        "name": "hats"
      },
      "children": [
        1,
        2
      ]
    },
    {
      "matrix": [
        1,
        0,
        0,
        0,
        0,
        1,
        0,
        0,
        0,
        0,
        1,
        0,
        0.0023748644161969423,
        -1.5332472766344543,
        -0.009615741670131683,
        1
      ],
      "name": "Head",
      "extras": {
        "name": "Head"
      },
      "mesh": 2
    },
    {
      "matrix": [
        1,
        0,
        0,
        0,
        0,
        1,
        0,
        0,
        0,
        0,
        1,
        0,
        -1.4938687086105347,
        -2.8248650628498333,
        0.005153251811861992,
        1
      ],
      "name": "Left_Arm",
      "extras": {
        "name": "Left_Arm"
      },
      "mesh": 3
    },
    {
      "matrix": [
        1,
        0,
        0,
        0,
        0,
        1,
        0,
        0,
        0,
        0,
        1,
        0,
        -0.4938691556453705,
        -4.791288359408459,
        0.005152298603206873,
        1
      ],
      "name": "Left_Leg",
      "extras": {
        "name": "Left_Leg"
      },
      "mesh": 4
    },
    {
      "matrix": [
        1,
        0,
        0,
        0,
        0,
        1,
        0,
        0,
        0,
        0,
        1,
        0,
        1.4938695430755615,
        -2.8233307406245745,
        0.005151326302438974,
        1
      ],
      "name": "Right_Arm",
      "extras": {
        "name": "Right_Arm"
      },
      "mesh": 5
    },
    {
      "matrix": [
        1,
        0,
        0,
        0,
        0,
        1,
        0,
        0,
        0,
        0,
        1,
        0,
        0.4916820824146271,
        -4.791510180146989,
        0.006370415911078453,
        1
      ],
      "name": "Right_Leg",
      "extras": {
        "name": "Right_Leg"
      },
      "mesh": 6
    },
    {
      "matrix": [
        1,
        0,
        0,
        0,
        0,
        1,
        0,
        0,
        0,
        0,
        1,
        0,
        0.0044196536764502525,
        -2.8048394650241635,
        -0.0034949369728565216,
        1
      ],
      "name": "Torso",
      "extras": {
        "name": "Torso"
      },
      "mesh": 7
    },
    {
      "matrix": [
        0.9999741613453644,
        0,
        -0.00718864687881704,
        0,
        0,
        1,
        0,
        0,
        0.00718864687881704,
        0,
        0.9999741613453644,
        0,
        0,
        2.7490744590759277,
        0,
        1
      ],
      "name": "lukaglb",
      "extras": {
        "name": "luka.glb"
      },
      "children": [
        3,
        4,
        5,
        6,
        7,
        8,
        9
      ]
    },
    {
      "name": "AmbientLight",
      "extras": {
        "name": "AmbientLight"
      }
    },
    {
      "name": "untitled.glb",
      "children": [
        10,
        11
      ]
    }
  ],
  "bufferViews": [
    {
      "buffer": 0,
      "byteOffset": 0,
      "byteLength": 242616,
      "target": 34962,
      "byteStride": 12
    },
    {
      "buffer": 0,
      "byteOffset": 242616,
      "byteLength": 242616,
      "target": 34962,
      "byteStride": 12
    },
    {
      "buffer": 0,
      "byteOffset": 485232,
      "byteLength": 161744,
      "target": 34962,
      "byteStride": 8
    },
    {
      "buffer": 0,
      "byteOffset": 646976,
      "byteLength": 79500,
      "target": 34963
    },
    {
      "buffer": 0,
      "byteOffset": 726476,
      "byteLength": 77196,
      "target": 34962,
      "byteStride": 12
    },
    {
      "buffer": 0,
      "byteOffset": 803672,
      "byteLength": 77196,
      "target": 34962,
      "byteStride": 12
    },
    {
      "buffer": 0,
      "byteOffset": 880868,
      "byteLength": 51464,
      "target": 34962,
      "byteStride": 8
    },
    {
      "buffer": 0,
      "byteOffset": 932332,
      "byteLength": 22644,
      "target": 34963
    },
    {
      "buffer": 0,
      "byteOffset": 954976,
      "byteLength": 38688,
      "target": 34962,
      "byteStride": 12
    },
    {
      "buffer": 0,
      "byteOffset": 993664,
      "byteLength": 38688,
      "target": 34962,
      "byteStride": 12
    },
    {
      "buffer": 0,
      "byteOffset": 1032352,
      "byteLength": 25792,
      "target": 34962,
      "byteStride": 8
    },
    {
      "buffer": 0,
      "byteOffset": 1058144,
      "byteLength": 28176,
      "target": 34963
    },
    {
      "buffer": 0,
      "byteOffset": 1086320,
      "byteLength": 8580,
      "target": 34962,
      "byteStride": 12
    },
    {
      "buffer": 0,
      "byteOffset": 1094900,
      "byteLength": 8580,
      "target": 34962,
      "byteStride": 12
    },
    {
      "buffer": 0,
      "byteOffset": 1103480,
      "byteLength": 5720,
      "target": 34962,
      "byteStride": 8
    },
    {
      "buffer": 0,
      "byteOffset": 1109200,
      "byteLength": 7200,
      "target": 34963
    },
    {
      "buffer": 0,
      "byteOffset": 1116400,
      "byteLength": 8580,
      "target": 34962,
      "byteStride": 12
    },
    {
      "buffer": 0,
      "byteOffset": 1124980,
      "byteLength": 8580,
      "target": 34962,
      "byteStride": 12
    },
    {
      "buffer": 0,
      "byteOffset": 1133560,
      "byteLength": 5720,
      "target": 34962,
      "byteStride": 8
    },
    {
      "buffer": 0,
      "byteOffset": 1139280,
      "byteLength": 7200,
      "target": 34963
    },
    {
      "buffer": 0,
      "byteOffset": 1146480,
      "byteLength": 8580,
      "target": 34962,
      "byteStride": 12
    },
    {
      "buffer": 0,
      "byteOffset": 1155060,
      "byteLength": 8580,
      "target": 34962,
      "byteStride": 12
    },
    {
      "buffer": 0,
      "byteOffset": 1163640,
      "byteLength": 5720,
      "target": 34962,
      "byteStride": 8
    },
    {
      "buffer": 0,
      "byteOffset": 1169360,
      "byteLength": 7200,
      "target": 34963
    },
    {
      "buffer": 0,
      "byteOffset": 1176560,
      "byteLength": 6324,
      "target": 34962,
      "byteStride": 12
    },
    {
      "buffer": 0,
      "byteOffset": 1182884,
      "byteLength": 6324,
      "target": 34962,
      "byteStride": 12
    },
    {
      "buffer": 0,
      "byteOffset": 1189208,
      "byteLength": 4216,
      "target": 34962,
      "byteStride": 8
    },
    {
      "buffer": 0,
      "byteOffset": 1193424,
      "byteLength": 5280,
      "target": 34963
    },
    {
      "buffer": 0,
      "byteOffset": 1198704,
      "byteLength": 24660,
      "target": 34962,
      "byteStride": 12
    },
    {
      "buffer": 0,
      "byteOffset": 1223364,
      "byteLength": 24660,
      "target": 34962,
      "byteStride": 12
    },
    {
      "buffer": 0,
      "byteOffset": 1248024,
      "byteLength": 16440,
      "target": 34962,
      "byteStride": 8
    },
    {
      "buffer": 0,
      "byteOffset": 1264464,
      "byteLength": 18432,
      "target": 34963
    }
  ],
  "buffers": [
    {
      "byteLength": 1282896,
      "uri": "data:application/octet-stream;base64,"
    }
  ],
  "accessors": [
    {
      "bufferView": 0,
      "componentType": 5126,
      "count": 20218,
      "max": [
        4.842805862426758,
        2.421247720718384,
        2.750298261642456
      ],
      "min": [
        -4.86622428894043,
        -2.4070820808410645,
        -0.8641107082366943
      ],
      "type": "VEC3"
    },
    {
      "bufferView": 1,
      "componentType": 5126,
      "count": 20218,
      "max": [
        1,
        1,
        1
      ],
      "min": [
        -1,
        -1,
        -1
      ],
      "type": "VEC3"
    },
    {
      "bufferView": 2,
      "componentType": 5126,
      "count": 20218,
      "max": [
        0.9918019771575928,
        0.9797750115394592
      ],
      "min": [
        0.7572579979896545,
        0.02069699764251709
      ],
      "type": "VEC2"
    },
    {
      "bufferView": 3,
      "componentType": 5123,
      "count": 39750,
      "max": [
        20217
      ],
      "min": [
        0
      ],
      "type": "SCALAR"
    },
    {
      "bufferView": 4,
      "componentType": 5126,
      "count": 6433,
      "max": [
        1.4215024709701538,
        1.4011287689208984,
        1.161940574645996
      ],
      "min": [
        -1.4302974939346313,
        -1.0762500762939453,
        -0.907577395439148
      ],
      "type": "VEC3"
    },
    {
      "bufferView": 5,
      "componentType": 5126,
      "count": 6433,
      "max": [
        0.9999831914901733,
        1,
        1
      ],
      "min": [
        -0.9999814033508301,
        -1,
        -1
      ],
      "type": "VEC3"
    },
    {
      "bufferView": 6,
      "componentType": 5126,
      "count": 6433,
      "max": [
        0.9983029961585999,
        0.9983410239219666
      ],
      "min": [
        0.00016199999663513154,
        0.00016099214553833008
      ],
      "type": "VEC2"
    },
    {
      "bufferView": 7,
      "componentType": 5123,
      "count": 11322,
      "max": [
        6432
      ],
      "min": [
        0
      ],
      "type": "SCALAR"
    },
    {
      "bufferView": 8,
      "componentType": 5126,
      "count": 3224,
      "max": [
        0.5957921147346497,
        0.6530113220214844,
        0.607781708240509
      ],
      "min": [
        -0.600541889667511,
        -0.5494098663330078,
        -0.5885522961616516
      ],
      "type": "VEC3"
    },
    {
      "bufferView": 9,
      "componentType": 5126,
      "count": 3224,
      "max": [
        1,
        1,
        1
      ],
      "min": [
        -1,
        -1,
        -1
      ],
      "type": "VEC3"
    },
    {
      "bufferView": 10,
      "componentType": 5126,
      "count": 3224,
      "max": [
        0.9775509834289551,
        0.234375
      ],
      "min": [
        0.8808590173721313,
        0.015625
      ],
      "type": "VEC2"
    },
    {
      "bufferView": 11,
      "componentType": 5123,
      "count": 14088,
      "max": [
        3223
      ],
      "min": [
        0
      ],
      "type": "SCALAR"
    },
    {
      "bufferView": 12,
      "componentType": 5126,
      "count": 715,
      "max": [
        0.49386870861053467,
        0.9999995231628418,
        0.4948487877845764
      ],
      "min": [
        -0.5061312913894653,
        -1.0000004768371582,
        -0.5051522254943848
      ],
      "type": "VEC3"
    },
    {
      "bufferView": 13,
      "componentType": 5126,
      "count": 715,
      "max": [
        1,
        1,
        1
      ],
      "min": [
        -1,
        -1,
        -1
      ],
      "type": "VEC3"
    },
    {
      "bufferView": 14,
      "componentType": 5126,
      "count": 715,
      "max": [
        0.6547849774360657,
        0.90625
      ],
      "min": [
        0.14794999361038208,
        0.0039060115814208984
      ],
      "type": "VEC2"
    },
    {
      "bufferView": 15,
      "componentType": 5123,
      "count": 3600,
      "max": [
        714
      ],
      "min": [
        0
      ],
      "type": "SCALAR"
    },
    {
      "bufferView": 16,
      "componentType": 5126,
      "count": 715,
      "max": [
        0.49386918544769287,
        1.000001072883606,
        0.49484872817993164
      ],
      "min": [
        -0.5061308145523071,
        -0.9999979734420776,
        -0.5051522850990295
      ],
      "type": "VEC3"
    },
    {
      "bufferView": 17,
      "componentType": 5126,
      "count": 715,
      "max": [
        1,
        1,
        1
      ],
      "min": [
        -1,
        -1,
        -1
      ],
      "type": "VEC3"
    },
    {
      "bufferView": 18,
      "componentType": 5126,
      "count": 715,
      "max": [
        0.7045900225639343,
        0.7617189884185791
      ],
      "min": [
        0.39990198612213135,
        0.0039060115814208984
      ],
      "type": "VEC2"
    },
    {
      "bufferView": 19,
      "componentType": 5123,
      "count": 3600,
      "max": [
        714
      ],
      "min": [
        0
      ],
      "type": "SCALAR"
    },
    {
      "bufferView": 20,
      "componentType": 5126,
      "count": 715,
      "max": [
        0.506130576133728,
        1.0000009536743164,
        0.49484866857528687
      ],
      "min": [
        -0.493869423866272,
        -0.9999990463256836,
        -0.5051523447036743
      ],
      "type": "VEC3"
    },
    {
      "bufferView": 21,
      "componentType": 5126,
      "count": 715,
      "max": [
        1,
        1,
        1
      ],
      "min": [
        -1,
        -1,
        -1
      ],
      "type": "VEC3"
    },
    {
      "bufferView": 22,
      "componentType": 5126,
      "count": 715,
      "max": [
        0.707518994808197,
        0.7617189884185791
      ],
      "min": [
        0.1684570014476776,
        0.1210939884185791
      ],
      "type": "VEC2"
    },
    {
      "bufferView": 23,
      "componentType": 5123,
      "count": 3600,
      "max": [
        714
      ],
      "min": [
        0
      ],
      "type": "SCALAR"
    },
    {
      "bufferView": 24,
      "componentType": 5126,
      "count": 527,
      "max": [
        0.5083179473876953,
        1.000000238418579,
        0.4936295747756958
      ],
      "min": [
        -0.4916820824146271,
        -0.9999988079071045,
        -0.5063714385032654
      ],
      "type": "VEC3"
    },
    {
      "bufferView": 25,
      "componentType": 5126,
      "count": 527,
      "max": [
        1,
        1,
        1
      ],
      "min": [
        -1,
        -1,
        -1
      ],
      "type": "VEC3"
    },
    {
      "bufferView": 26,
      "componentType": 5126,
      "count": 527,
      "max": [
        0.558106005191803,
        0.7617189884185791
      ],
      "min": [
        0.3471679985523224,
        0.1210939884185791
      ],
      "type": "VEC2"
    },
    {
      "bufferView": 27,
      "componentType": 5123,
      "count": 2640,
      "max": [
        526
      ],
      "min": [
        0
      ],
      "type": "SCALAR"
    },
    {
      "bufferView": 28,
      "componentType": 5126,
      "count": 2055,
      "max": [
        0.9955803751945496,
        0.9927704334259033,
        0.5034979581832886
      ],
      "min": [
        -1.0044196844100952,
        -1.0072306394577026,
        -0.4965040385723114
      ],
      "type": "VEC3"
    },
    {
      "bufferView": 29,
      "componentType": 5126,
      "count": 2055,
      "max": [
        1,
        1,
        1
      ],
      "min": [
        -1,
        -1,
        -1
      ],
      "type": "VEC3"
    },
    {
      "bufferView": 30,
      "componentType": 5126,
      "count": 2055,
      "max": [
        0.3376460075378418,
        0.7597659826278687
      ],
      "min": [
        0.021973000839352608,
        0.0039060115814208984
      ],
      "type": "VEC2"
    },
    {
      "bufferView": 31,
      "componentType": 5123,
      "count": 9216,
      "max": [
        2054
      ],
      "min": [
        0
      ],
      "type": "SCALAR"
    }
  ],
  "materials": [
    {
      "pbrMetallicRoughness": {
        "metallicFactor": 0,
        "roughnessFactor": 1,
        "baseColorTexture": {
          "index": 0,
          "texCoord": 0
        }
      },
      "name": "Handle1Mtl"
    },
    {
      "pbrMetallicRoughness": {
        "metallicFactor": 0,
        "roughnessFactor": 1,
        "baseColorTexture": {
          "index": 1,
          "texCoord": 0
        }
      },
      "name": "Handle2Mtl"
    },
    {
      "pbrMetallicRoughness": {
        "metallicFactor": 0,
        "roughnessFactor": 1,
        "baseColorTexture": {
          "index": 2,
          "texCoord": 0
        }
      },
      "name": "Starter_Blocky_Rig.005"
    },
    {
      "pbrMetallicRoughness": {
        "metallicFactor": 0,
        "roughnessFactor": 1,
        "baseColorTexture": {
          "index": 2,
          "texCoord": 0
        }
      },
      "name": "Starter_Blocky_Rig.004"
    },
    {
      "pbrMetallicRoughness": {
        "metallicFactor": 0,
        "roughnessFactor": 1,
        "baseColorTexture": {
          "index": 2,
          "texCoord": 0
        }
      },
      "name": "Starter_Blocky_Rig.003"
    },
    {
      "pbrMetallicRoughness": {
        "metallicFactor": 0,
        "roughnessFactor": 1,
        "baseColorTexture": {
          "index": 2,
          "texCoord": 0
        }
      },
      "name": "Starter_Blocky_Rig.002"
    },
    {
      "pbrMetallicRoughness": {
        "metallicFactor": 0,
        "roughnessFactor": 1,
        "baseColorTexture": {
          "index": 2,
          "texCoord": 0
        }
      },
      "name": "Starter_Blocky_Rig.001"
    },
    {
      "pbrMetallicRoughness": {
        "metallicFactor": 0,
        "roughnessFactor": 1,
        "baseColorTexture": {
          "index": 2,
          "texCoord": 0
        }
      },
      "name": "Starter_Blocky_Rig"
    }
  ],
  "textures": [
    {
      "sampler": 0,
      "source": 0,
      "name": "Image_1"
    },
    {
      "sampler": 1,
      "source": 1,
      "name": "Image_2"
    },
    {
      "sampler": 2,
      "source": 2,
      "name": "Image_0"
    }
  ],
  "samplers": [
    {
      "magFilter": 9729,
      "minFilter": 9987,
      "wrapS": 10497,
      "wrapT": 10497
    },
    {
      "magFilter": 9729,
      "minFilter": 9987,
      "wrapS": 10497,
      "wrapT": 10497
    },
    {
      "magFilter": 9729,
      "minFilter": 9987,
      "wrapS": 10497,
      "wrapT": 10497
    }
  ],
  "images": [
    {
      "mimeType": "image/png",
      "uri": "data:image/png;base64,"
    },
    {
      "mimeType": "image/png",
      "uri": "data:image/png;base64,"
    },
    {
      "mimeType": "image/png",
      "uri": "data:image/png;base64,"
    }
  ],
  "meshes": [
    {
      "primitives": [
        {
          "mode": 4,
          "attributes": {
            "POSITION": 0,
            "NORMAL": 1,
            "TEXCOORD_0": 2
          },
          "indices": 3,
          "material": 0
        }
      ]
    },
    {
      "primitives": [
        {
          "mode": 4,
          "attributes": {
            "POSITION": 4,
            "NORMAL": 5,
            "TEXCOORD_0": 6
          },
          "indices": 7,
          "material": 1
        }
      ]
    },
    {
      "primitives": [
        {
          "mode": 4,
          "attributes": {
            "POSITION": 8,
            "NORMAL": 9,
            "TEXCOORD_0": 10
          },
          "indices": 11,
          "material": 2
        }
      ]
    },
    {
      "primitives": [
        {
          "mode": 4,
          "attributes": {
            "POSITION": 12,
            "NORMAL": 13,
            "TEXCOORD_0": 14
          },
          "indices": 15,
          "material": 3
        }
      ]
    },
    {
      "primitives": [
        {
          "mode": 4,
          "attributes": {
            "POSITION": 16,
            "NORMAL": 17,
            "TEXCOORD_0": 18
          },
          "indices": 19,
          "material": 4
        }
      ]
    },
    {
      "primitives": [
        {
          "mode": 4,
          "attributes": {
            "POSITION": 20,
            "NORMAL": 21,
            "TEXCOORD_0": 22
          },
          "indices": 23,
          "material": 5
        }
      ]
    },
    {
      "primitives": [
        {
          "mode": 4,
          "attributes": {
            "POSITION": 24,
            "NORMAL": 25,
            "TEXCOORD_0": 26
          },
          "indices": 27,
          "material": 6
        }
      ]
    },
    {
      "primitives": [
        {
          "mode": 4,
          "attributes": {
            "POSITION": 28,
            "NORMAL": 29,
            "TEXCOORD_0": 30
          },
          "indices": 31,
          "material": 7
        }
      ]
    }
  ]
}