<svg xmlns="http://www.w3.org/2000/svg" width="917" height="962" viewBox="0 0 917 962">
  <defs>
    <style>
      .cls-1 {
        fill: #fff;
        fill-rule: evenodd;
      }
    </style>
  </defs>
  <path id="Color_Fill_1" data-name="Color Fill 1" class="cls-1" d="M334,0h2L302,68c-15.507,36.341-24.947,77.5-33,121-14.96,80.815,2.489,173.6,25,232,64.364,166.986,183.075,277.79,372,320,53.472,11.947,129.5,11.56,183,0l68-18v1C861.031,828.577,755.336,904.675,633,943l-77,16c-74.933,14.128-161.38-3.13-216-22C185.359,883.574,80.114,778.717,25,626,2.339,563.206-10.831,459.62,7,380c10.938-48.84,24.33-93,44-133C94.864,157.8,165.3,87.608,249,38,275.391,22.358,306.014,15.289,334,0ZM588,85c86.936-1.182,138.522,35.6,164,95,48.5,113.082-35.864,207.074-129,222-111.2,17.821-203.475-97.161-170-206,15.158-49.284,52.319-85.015,99-103Z"/>
</svg>
