<svg xmlns="http://www.w3.org/2000/svg" width="1323" height="258" viewBox="0 0 1323 258">
  <defs>
    <style>
      .cls-1 {
        fill: #fff;
        fill-rule: evenodd;
      }
    </style>
  </defs>
  <path id="Color_Fill_1" data-name="Color Fill 1" class="cls-1" d="M188,31h41v1q-12.5,82.492-25,165h88q-2.5,16-5,32H159Q173.5,130.011,188,31Zm148,0h41c-2.954,29.356-27.533,131.03-18,153,3.669,8.456,13.759,14.109,24,16,70.053,12.933,58.251-119.648,72-169h40l-13,86c-13.21,67.885-10.526,100.9-81,113-16.086,2.762-36.908.99-49-4C288.3,199.715,330.588,94.433,336,31Zm192,0h41l58,130h2q9.5-64.993,19-130h40q-14.5,98.99-29,198H618q-29-65.994-58-132h-1v2L539,229H499Q513.5,130.011,528,31Zm291,0q18,98.99,36,198H813l-7-43H743l-21,43H681v-1L778,31h41ZM974,64q-4,27-8,54h49v1q-2.5,17-5,34c-11.362-.324-42.3-4.078-49,2q-4,27-8,54H914q4-28,8-56H874q2.5-17.5,5-35h49q4-27,8-54h38Zm151,0q-4.005,27-8,54h49v1q-2.505,17-5,34c-11.36-.324-42.3-4.078-49,2q-4.005,27-8,54h-39q4.005-28,8-56h-48q2.505-17.5,5-35h49q4.005-27,8-54h38ZM789,86l-31,68h43Q795,120,789,86Z"/>
</svg>
