<svg xmlns="http://www.w3.org/2000/svg" width="1323" height="258" viewBox="0 0 1323 258">
  <defs>
    <style>
      .cls-1 {
        fill: #fff;
        fill-rule: evenodd;
      }
    </style>
  </defs>
  <path id="Color_Fill_1" data-name="Color Fill 1" class="cls-1" d="M723,92h27q-2,14-4,28H718L701,236H662l17-116H658q2-14,4-28c7.781,0.63,17.56,1.056,21-3,12.186-39.743,27.035-76.632,84-59l-7,29C732.909,55.561,722.887,65.763,723,92ZM930,30h40q-15.5,102.99-31,206H900Zm71,0h40q-1.995,14.5-4,29H997V58Q999,44,1001,30ZM142,235q14-95.991,28-192c52.339-1.2,111.8-6.6,131,26,5.844,9.924,6.88,25.982,4,39-11.222,50.733-50.444,59.448-114,58l-10,69H142ZM582,120H562q2-14,4-28h21q2.5-17,5-34h39q-2.5,17-5,34h24q-2,14-4,28c-8.238-.621-20.274-1.321-24,3-5.413,15-16.822,65.876-9,80,4.386,4.934,10.842,4.13,19,3,0.463,9.47,1.169,25.6-5,29C546.709,272.2,579.621,157,582,120ZM205,73q-4.5,31-9,62c36.867,1.641,80.181-1.03,71-43C262.164,69.894,232.611,71.776,205,73ZM385,89c107.956-3.076,70.351,169.7-30,148-60.07-12.989-47.788-104.062-11-133C355.478,94.971,368.436,93.782,385,89Zm76,146q10.5-71.493,21-143h37q-0.5,8.5-1,17c9.5-11.377,22.644-24.735,44-18q-4.5,17.5-9,35c-53.217-1.164-48.726,61.844-53,109H461ZM822,89c107.956-3.076,70.351,169.7-30,148-60.07-12.989-47.788-104.062-11-133C792.478,94.971,805.436,93.782,822,89Zm295,0c107.96-3.076,70.35,169.7-30,148-60.07-12.989-47.79-104.062-11-133C1087.48,94.971,1100.44,93.782,1117,89Zm-86,3q-10.5,71.993-21,144H971q10.5-71.992,21-144h39ZM382,120c-20.7,9.361-52.52,77.759-15,87C412.127,218.114,431.252,117.824,382,120Zm437,0c-20.7,9.361-52.52,77.759-15,87C849.127,218.114,868.252,117.824,819,120Zm295,0c-20.7,9.361-52.52,77.759-15,87C1144.13,218.114,1163.25,117.824,1114,120Z"/>
</svg>
